<svg width="15" height="16" viewBox="0 0 15 16" fill="none" xmlns="http://www.w3.org/2000/svg">
<path fill-rule="evenodd" clip-rule="evenodd" d="M1.54312 4.65041C1.58667 4.60675 1.63839 4.57212 1.69534 4.54849C1.75229 4.52486 1.81334 4.5127 1.875 4.5127C1.93666 4.5127 1.99771 4.52486 2.05466 4.54849C2.1116 4.57212 2.16333 4.60675 2.20687 4.65041L7.5 9.94447L12.7931 4.65041C12.8367 4.60683 12.8884 4.57225 12.9454 4.54867C13.0023 4.52508 13.0634 4.51294 13.125 4.51294C13.1866 4.51294 13.2477 4.52508 13.3046 4.54867C13.3616 4.57225 13.4133 4.60683 13.4569 4.65041C13.5005 4.69399 13.535 4.74573 13.5586 4.80267C13.5822 4.85962 13.5943 4.92065 13.5943 4.98228C13.5943 5.04392 13.5822 5.10495 13.5586 5.16189C13.535 5.21884 13.5005 5.27058 13.4569 5.31416L7.83187 10.9392C7.78833 10.9828 7.7366 11.0174 7.67965 11.0411C7.62271 11.0647 7.56166 11.0769 7.5 11.0769C7.43834 11.0769 7.37729 11.0647 7.32034 11.0411C7.26339 11.0174 7.21167 10.9828 7.16812 10.9392L1.54312 5.31416C1.49947 5.27062 1.46484 5.21889 1.44121 5.16194C1.41757 5.10499 1.40541 5.04394 1.40541 4.98228C1.40541 4.92063 1.41757 4.85958 1.44121 4.80263C1.46484 4.74568 1.49947 4.69395 1.54312 4.65041Z" fill="#212529"/>
</svg>
